<svg width="150" height="150" xmlns="http://www.w3.org/2000/svg">
 <g id="Layer_1">
  <title>Layer 1</title>
  <path stroke="#ffffff" id="svg_3" d="m13.04252,47.94292l130.65694,0l0,96.71532l-130.65694,0l0,-96.71532z" opacity="undefined" stroke-width="0" fill="#ffffff"/>
  <path stroke="null" stroke-width="0" fill="black" d="m7.56706,0.18613c-3.86305,0 -6.97582,3.13567 -6.97582,7.02714l0,135.85812c0,3.89148 3.11277,7.02714 6.97582,7.02714l134.86587,0c3.86305,0 6.97582,-3.13567 6.97582,-7.02714l0,-135.85812c0,-3.89148 -3.11277,-7.02714 -6.97582,-7.02714l-134.86587,0zm107.66327,60.90192c3.79485,0 7.15564,0.23111 10.08859,0.69334c2.76615,0.41751 5.48083,1.12934 8.09815,2.12376l0,15.35353c-1.25627,-0.87511 -2.59128,-1.6303 -3.98707,-2.25493c-1.43981,-0.65274 -2.9255,-1.19555 -4.44592,-1.62405c-2.87962,-0.80828 -5.85287,-1.22866 -8.84224,-1.24927c-1.86022,0 -3.55302,0.1749 -5.0784,0.53719c-1.35982,0.29295 -2.66383,0.80328 -3.86305,1.51162c-1.05412,0.64962 -1.86022,1.43041 -2.43689,2.33614c-0.57977,0.91259 -0.88174,1.97697 -0.8681,3.06071c0,1.22428 0.32864,2.32989 0.96731,3.30432c0.64488,0.97443 1.56258,1.89889 2.74692,2.77338c1.18434,0.87449 2.62291,1.72399 4.31571,2.561c1.6928,0.84326 3.60882,1.7115 5.74188,2.59848c2.91434,1.23053 5.53105,2.54226 7.85012,3.92271c2.31907,1.38669 4.30951,2.95452 5.9713,4.7035c1.6618,1.74273 2.92674,3.73532 3.80725,5.97776c0.8805,2.24244 1.32696,4.84717 1.32696,7.82668c0,4.10385 -0.77509,7.55808 -2.31287,10.34396c-1.50244,2.74777 -3.65843,5.07641 -6.27514,6.77729c-2.82009,1.80145 -5.94588,3.06321 -9.22049,3.72282c-3.50961,0.74956 -7.21145,1.12434 -11.09931,1.12434c-3.82647,0.01687 -7.64612,-0.32606 -11.40934,-1.0244c-3.256,-0.56717 -6.41341,-1.60469 -9.3755,-3.07945l0,-16.4279c5.60422,4.80407 12.71336,7.45877 20.07176,7.49562c2.06484,0 3.86926,-0.18739 5.40704,-0.56217c1.54398,-0.37478 2.82753,-0.89947 3.86305,-1.56159c1.02932,-0.67461 1.79821,-1.46165 2.31287,-2.37361c0.56861,-1.06188 0.8278,-2.2643 0.74657,-3.46797c-0.08123,-1.20367 -0.49916,-2.35987 -1.20542,-3.3343c-0.92143,-1.22803 -2.0481,-2.28491 -3.32979,-3.12318c-1.58925,-1.06125 -3.26344,-1.98884 -5.00399,-2.77338c-2.0636,-0.94945 -4.14519,-1.85704 -6.24413,-2.72341c-5.69227,-2.39235 -9.93357,-5.32189 -12.7301,-8.77612c-2.79033,-3.45423 -4.19169,-7.63304 -4.19169,-12.52393c0,-3.83526 0.76269,-7.12709 2.28807,-9.88173c1.52538,-2.75464 3.59642,-5.02207 6.22553,-6.80228c2.78103,-1.8483 5.86775,-3.17877 9.11507,-3.92895c3.59642,-0.85413 7.28028,-1.27557 10.97529,-1.25552l0,0zm-93.71163,1.17431l59.29758,0l0,13.52959l-21.2809,0l0,60.25229l-16.84738,0l0,-60.25229l-21.16929,0l0,-13.52959z"/>
 </g>

</svg>