<svg width="400" height="400" xmlns="http://www.w3.org/2000/svg">
 <g>
  <title>Layer 1</title>
  <g id="svg_39" stroke="null">
   <g id="svg_40" stroke="null">
    <title stroke="null">Layer 1</title>
    <g id="svg_41" stroke="null">
     <g id="svg_4" stroke="null"/>
     <g id="svg_3" stroke="null">
      <g id="svg_42" stroke="null">
       <g id="svg_43" stroke="null">
        <path id="svg_44" fill="#fff" d="m176.65269,190.45229c3.7352,3.90744 8.07304,7.57573 9.9522,12.59796c2.88612,7.71884 -0.78555,16.61839 1.85412,24.42197c4.25505,12.57725 21.07694,14.98385 34.61994,15.18346c4.29933,0.06403 8.86437,0.05838 12.52833,-2.14109c5.22158,-3.13537 7.00639,-9.82038 6.75225,-15.80865c-0.25415,-5.98827 -2.06784,-11.85414 -2.07939,-17.84617c-0.03273,-17.38669 14.39401,-30.95822 26.22728,-43.93469c11.83328,-12.97458 22.36886,-31.68322 13.75864,-46.89492c-3.97587,-7.02209 -11.29803,-11.58862 -16.28664,-17.96292c-4.44374,-5.67944 -6.88895,-12.59984 -10.77625,-18.65591c-18.42957,-28.70979 -73.74907,-33.83184 -92.46937,-2.52148c-18.67216,31.22562 -8.18279,88.35333 15.91889,113.56243l0,0.00001z" stroke="null"/>
        <path id="svg_45" fill="#6987FF" d="m314.72618,362.40411c5.07718,-23.39003 0.38315,-48.66316 -12.77863,-68.81237c-13.16178,-20.14921 -34.63726,-34.93533 -58.47132,-40.25887c-15.10062,-3.37264 -30.77691,-3.05816 -46.2549,-2.54407c-12.77478,0.42558 -25.71129,1.00181 -37.92001,4.70588c-12.2068,3.70218 -23.79363,10.92577 -30.0318,21.83647c-3.76986,6.59086 -5.39679,14.11951 -6.84466,21.53705c-2.25652,11.56037 -14.5076,48.74037 -5.88776,58.25757c8.91828,9.84675 48.07822,5.33107 60.68934,5.80184c12.47442,0.46701 135.98063,6.47411 137.49974,-0.5235z" stroke="null"/>
        <path id="svg_46" fill="#C3C62B" d="m188.97115,352.45944c0.43128,1.55168 0.89914,3.15985 1.97735,4.37445c1.20913,1.36148 3.01319,2.04128 4.74217,2.67212c8.83356,3.21634 19.84278,6.07677 26.78756,-0.15818c6.08414,-5.461 5.44877,-14.80308 4.97129,-22.86652c-0.85871,-14.50555 0.35042,-29.12596 3.5831,-43.3095c3.09213,-13.56964 8.05186,-26.97922 7.74573,-40.87841c-0.07701,-3.54212 -0.56413,-7.2443 -2.63775,-10.14993c-12.91533,-18.07968 -58.77938,-9.75824 -62.72637,12.56783c-5.27549,29.85096 7.63214,69.19464 15.55693,97.74813l-0.00001,0.00001z" stroke="null"/>
       </g>
       <g id="svg_47" stroke="null">
        <path id="svg_48" stroke-miterlimit="10" fill="none" d="m262.85693,90.73631c0,0 7.04683,67.64107 -21.17898,99.25838c-3.81222,4.27464 -8.2598,7.8902 -13.47753,10.58304c-7.27787,3.78504 -16.03827,5.78113 -26.55074,5.29152c-7.00832,-0.32013 -13.22724,-1.6383 -18.71452,-3.74738c-3.96625,-1.52531 -7.56667,-3.46491 -10.82054,-5.72463c-39.43142,-27.66279 -28.74566,-105.66093 -28.74566,-105.66093" stroke="#000000"/>
        <path id="svg_49" stroke-miterlimit="10" fill="none" d="m92.15432,361.9032l9.68457,-43.55618c5.10221,-22.95503 19.44616,-42.93476 39.79724,-55.41973l37.64083,-23.08685l1.88685,-19.43363l1.77133,-18.28493" stroke="#000000"/>
        <path id="svg_50" stroke-miterlimit="10" fill="none" d="m319.13526,361.9032l-9.68457,-43.55618c-5.10221,-22.95503 -19.44616,-42.93476 -39.79724,-55.41973l-37.64083,-23.08685l-3.36938,-34.74326l-0.44283,-4.51945" stroke="#000000"/>
        <path id="svg_51" stroke-miterlimit="10" fill="none" d="m142.16368,123.62471c0,0 -12.54759,-19.28486 -20.8844,-11.79953c-8.33682,7.48534 2.0043,48.96069 25.49179,46.64635" stroke="#000000"/>
        <path id="svg_52" stroke-miterlimit="10" fill="none" d="m262.88581,123.62471c0,0 12.54759,-19.28486 20.8844,-11.79953c8.33682,7.48534 -2.0043,48.96069 -25.49179,46.64635" stroke="#000000"/>
        <path id="svg_53" stroke-miterlimit="10" fill="none" d="m129.01923,128.7976c0,0 10.86482,1.17694 14.59232,10.08779" stroke="#000000"/>
        <path id="svg_54" stroke-miterlimit="10" fill="none" d="m133.87499,137.86474c0,0 0.73741,-3.59673 7.65331,-2.44615" stroke="#000000"/>
        <path id="svg_55" stroke-miterlimit="10" fill="none" d="m276.27863,128.7976c0,0 -10.86482,1.17694 -14.59232,10.08779" stroke="#000000"/>
        <path id="svg_56" stroke-miterlimit="10" fill="none" d="m271.42286,137.86474c0,0 -0.73741,-3.59673 -7.65331,-2.44615" stroke="#000000"/>
        <path id="svg_57" d="m230.48581,69.42523c0,0 -52.09452,32.81684 -95.36126,20.15109c-43.26481,-12.66575 -10.23715,-91.03863 59.64964,-73.39584c50.13258,12.65634 51.90006,37.49824 51.90006,37.49824s14.7656,-13.90295 24.7486,-12.46238l4.85576,12.46238c0,0 -16.06522,-1.52531 -20.1855,5.67191c0,0 39.47763,28.92635 7.55127,63.17247c0,0 -7.55127,-23.73464 -7.84585,-35.53793c0,0 -13.83373,0.86434 -25.31274,-17.55994l0.00002,0z" stroke="null"/>
        <path id="svg_58" d="m148.32098,92.08461c0,0 -1.93884,28.18818 -6.13613,29.59297c0,0 -7.35296,-14.54132 -7.05838,-32.10126c0,0 9.92717,2.25031 13.19451,2.50829z" stroke="null"/>
        <path id="svg_59" stroke-miterlimit="10" fill="none" d="m179.27503,239.84044c1.47098,0.28811 31.8994,8.3478 52.73952,0" stroke="#000000"/>
        <path id="svg_60" stroke-miterlimit="10" fill="none" d="m171.95288,244.33164c0,0 38.85381,14.85392 67.38382,0" stroke="#000000"/>
        <line id="svg_61" stroke-miterlimit="10" fill="none" y2="361.89567" x2="182.93514" y1="247.63272" x1="166.57149" stroke="#000000"/>
        <line id="svg_62" stroke-miterlimit="10" fill="none" y2="361.89567" x2="188.62266" y1="244.33164" x1="171.95288" stroke="#000000"/>
        <path id="svg_63" stroke-miterlimit="10" fill="none" d="m140.5483,263.60897l-4.54,36.10663c0,0 14.05322,-19.27168 37.11521,-6.31781" stroke="#000000"/>
        <line id="svg_64" stroke-miterlimit="10" fill="none" y2="361.89567" x2="228.74336" y1="247.63272" x1="245.10701" stroke="#000000"/>
        <line id="svg_65" stroke-miterlimit="10" fill="none" y2="361.89567" x2="223.05584" y1="244.33164" x1="239.72563" stroke="#000000"/>
        <path id="svg_66" stroke-miterlimit="10" fill="none" d="m271.12828,263.60897l4.54,36.10663c0,0 -14.05322,-19.27168 -37.11713,-6.31781" stroke="#000000"/>
        <path id="svg_67" stroke-miterlimit="10" stroke-linejoin="round" stroke-linecap="round" stroke-width="3" fill="none" d="m157.99593,104.59784c0,0 13.46598,-8.41936 22.07428,0" stroke="#000000"/>
        <path id="svg_68" d="m172.56514,120.78876c0,3.04121 -1.58072,5.50619 -3.53111,5.50619c-1.95039,0 -3.53111,-2.46498 -3.53111,-5.50619c0,-3.04121 1.58072,-5.50619 3.53111,-5.50619c1.95039,0.00188 3.53111,2.46687 3.53111,5.50619z" stroke="null"/>
        <path id="svg_69" stroke-miterlimit="10" stroke-linejoin="round" stroke-linecap="round" stroke-width="3" fill="none" d="m241.68179,104.59784c0,0 -13.46598,-8.41936 -22.07428,0" stroke="#000000"/>
        <path id="svg_70" d="m227.11258,120.78876c0,3.04121 1.58072,5.50619 3.53111,5.50619c1.95039,0 3.53111,-2.46498 3.53111,-5.50619c0,-3.04121 -1.58072,-5.50619 -3.53111,-5.50619c-1.95039,0.00188 -3.53111,2.46687 -3.53111,5.50619z" stroke="null"/>
        <path id="svg_71" stroke-miterlimit="10" fill="none" d="m195.33063,114.54815c0.22142,0.86434 0.44091,18.99863 -5.7395,28.49889c0,0 3.53111,6.04476 12.80366,6.26132" stroke="#000000"/>
        <path id="svg_72" stroke-miterlimit="10" fill="none" d="m186.33726,158.56381c0,0 21.21364,4.70588 40.77532,-4.21815" stroke="#000000"/>
        <path id="svg_73" stroke-miterlimit="10" fill="none" d="m198.33226,166.36363c0,0 8.39458,1.36713 12.80366,-0.9359" stroke="#000000"/>
        <path id="svg_74" d="m228.64324,205.09718c-13.92037,4.6136 -35.56144,11.52459 -47.47943,15.30963l1.77133,-18.28493c5.48728,2.10908 11.7062,3.42725 18.71452,3.74738c10.51248,0.48961 19.27287,-1.50648 26.55074,-5.29152l0.44283,4.51945l0.00001,-0.00001z" stroke="null"/>
       </g>
      </g>
     </g>
    </g>
   </g>
  </g>
 </g>

</svg>