<svg width="250" height="380" xmlns="http://www.w3.org/2000/svg">
 <g>
  <title>Layer 1</title>
  <g id="svg_5" stroke="null">
   <g id="svg_2" stroke="null"/>
   <g id="svg_1" stroke="null">
    <g id="svg_6" stroke="null">
     <g id="svg_7" stroke="null">
      <path id="svg_8" d="m384.942,226.505c1.94,2.075 4.193,4.023 5.169,6.69c1.499,4.099 -0.408,8.825 0.963,12.969c2.21,6.679 10.947,7.957 17.981,8.063c2.233,0.034 4.604,0.031 6.507,-1.137c2.712,-1.665 3.639,-5.215 3.507,-8.395c-0.132,-3.18 -1.074,-6.295 -1.08,-9.477c-0.017,-9.233 7.476,-16.44 13.622,-23.331c6.146,-6.89 11.618,-16.825 7.146,-24.903c-2.065,-3.729 -5.868,-6.154 -8.459,-9.539c-2.308,-3.016 -3.578,-6.691 -5.597,-9.907c-9.572,-15.246 -38.304,-17.966 -48.027,-1.339c-9.698,16.582 -4.25,46.919 8.268,60.306z" fill="#fff" stroke="null"/>
      <path id="svg_9" d="m456.655,317.818c2.637,-12.421 0.199,-25.842 -6.637,-36.542c-6.836,-10.7 -17.99,-18.552 -30.369,-21.379c-7.843,-1.791 -15.985,-1.624 -24.024,-1.351c-6.635,0.226 -13.354,0.532 -19.695,2.499c-6.34,1.966 -12.358,5.802 -15.598,11.596c-1.958,3.5 -2.803,7.498 -3.555,11.437c-1.172,6.139 -7.535,25.883 -3.058,30.937c4.632,5.229 24.971,2.831 31.521,3.081c6.479,0.248 70.626,3.438 71.415,-0.278z" fill="#6987FF" stroke="null"/>
      <path id="svg_10" d="m391.34,312.537c0.224,0.824 0.467,1.678 1.027,2.323c0.628,0.723 1.565,1.084 2.463,1.419c4.588,1.708 10.306,3.227 13.913,-0.084c3.16,-2.9 2.83,-7.861 2.582,-12.143c-0.446,-7.703 0.182,-15.467 1.861,-22.999c1.606,-7.206 4.182,-14.327 4.023,-21.708c-0.04,-1.881 -0.293,-3.847 -1.37,-5.39c-6.708,-9.601 -30.529,-5.182 -32.579,6.674c-2.74,15.852 3.964,36.745 8.08,51.908z" fill="#C3C62B" stroke="null"/>
     </g>
     <g id="svg_11" stroke="null">
      <path id="svg_12" d="m429.715,173.552c0,0 3.66,35.92 -11,52.71c-1.98,2.27 -4.29,4.19 -7,5.62c-3.78,2.01 -8.33,3.07 -13.79,2.81c-3.64,-0.17 -6.87,-0.87 -9.72,-1.99c-2.06,-0.81 -3.93,-1.84 -5.62,-3.04c-20.48,-14.69 -14.93,-56.11 -14.93,-56.11" fill="none" stroke-miterlimit="10" stroke="#000000"/>
      <path id="svg_13" d="m341.055,317.552l5.03,-23.13c2.65,-12.19 10.1,-22.8 20.67,-29.43l19.55,-12.26l0.98,-10.32l0.92,-9.71" fill="none" stroke-miterlimit="10" stroke="#000000"/>
      <path id="svg_14" d="m458.945,317.552l-5.03,-23.13c-2.65,-12.19 -10.1,-22.8 -20.67,-29.43l-19.55,-12.26l-1.75,-18.45l-0.23,-2.4" fill="none" stroke-miterlimit="10" stroke="#000000"/>
      <path id="svg_15" d="m367.029,191.017c0,0 -6.517,-10.241 -10.847,-6.266c-4.33,3.975 1.041,26 13.24,24.771" fill="none" stroke-miterlimit="10" stroke="#000000"/>
      <path id="svg_16" d="m429.73,191.017c0,0 6.517,-10.241 10.847,-6.266c4.33,3.975 -1.041,26 -13.24,24.771" fill="none" stroke-miterlimit="10" stroke="#000000"/>
      <path id="svg_17" d="m360.202,193.764c0,0 5.643,0.625 7.579,5.357" fill="none" stroke-miterlimit="10" stroke="#000000"/>
      <path id="svg_18" d="m362.724,198.579c0,0 0.383,-1.91 3.975,-1.299" fill="none" stroke-miterlimit="10" stroke="#000000"/>
      <path id="svg_19" d="m436.686,193.764c0,0 -5.643,0.625 -7.579,5.357" fill="none" stroke-miterlimit="10" stroke="#000000"/>
      <path id="svg_20" d="m434.164,198.579c0,0 -0.383,-1.91 -3.975,-1.299" fill="none" stroke-miterlimit="10" stroke="#000000"/>
      <path id="svg_21" d="m412.902,162.235c0,0 -27.057,17.427 -49.529,10.701c-22.471,-6.726 -5.317,-48.345 30.981,-38.976c26.038,6.721 26.956,19.913 26.956,19.913s7.669,-7.383 12.854,-6.618l2.522,6.618c0,0 -8.344,-0.81 -10.484,3.012c0,0 20.504,15.361 3.922,33.547c0,0 -3.922,-12.604 -4.075,-18.872c0,0 -7.185,0.459 -13.147,-9.325z" stroke="null"/>
      <path id="svg_22" d="m370.227,174.268c0,0 -1.007,14.969 -3.187,15.715c0,0 -3.819,-7.722 -3.666,-17.047c0,0 5.156,1.195 6.853,1.332z" stroke="null"/>
      <path id="svg_23" d="m386.304,252.732c0.764,0.153 16.568,4.433 27.392,0" fill="none" stroke-miterlimit="10" stroke="#000000"/>
      <path id="svg_24" d="m382.501,255.117c0,0 20.18,7.888 34.998,0" fill="none" stroke-miterlimit="10" stroke="#000000"/>
      <line id="svg_25" x1="379.706" y1="256.87" x2="388.205" y2="317.548" fill="none" stroke-miterlimit="10" stroke="#000000"/>
      <line id="svg_26" x1="382.501" y1="255.117" x2="391.159" y2="317.548" fill="none" stroke-miterlimit="10" stroke="#000000"/>
      <path id="svg_27" d="m366.19,265.354l-2.358,19.174c0,0 7.299,-10.234 19.277,-3.355" fill="none" stroke-miterlimit="10" stroke="#000000"/>
      <line id="svg_28" x1="420.496" y1="256.87" x2="411.997" y2="317.548" fill="none" stroke-miterlimit="10" stroke="#000000"/>
      <line id="svg_29" x1="417.701" y1="255.117" x2="409.043" y2="317.548" fill="none" stroke-miterlimit="10" stroke="#000000"/>
      <path id="svg_30" d="m434.011,265.354l2.358,19.174c0,0 -7.299,-10.234 -19.278,-3.355" fill="none" stroke-miterlimit="10" stroke="#000000"/>
      <path id="svg_31" d="m375.252,180.913c0,0 6.994,-4.471 11.465,0" fill="none" stroke-width="3" stroke-linecap="round" stroke-linejoin="round" stroke-miterlimit="10" stroke="#000000"/>
      <path id="svg_32" d="m382.819,189.511c0,1.615 -0.821,2.924 -1.834,2.924c-1.013,0 -1.834,-1.309 -1.834,-2.924c0,-1.615 0.821,-2.924 1.834,-2.924c1.013,0.001 1.834,1.31 1.834,2.924z" stroke="null"/>
      <path id="svg_33" d="m418.717,180.913c0,0 -6.994,-4.471 -11.465,0" fill="none" stroke-width="3" stroke-linecap="round" stroke-linejoin="round" stroke-miterlimit="10" stroke="#000000"/>
      <path id="svg_34" d="m411.15,189.511c0,1.615 0.821,2.924 1.834,2.924c1.013,0 1.834,-1.309 1.834,-2.924c0,-1.615 -0.821,-2.924 -1.834,-2.924c-1.013,0.001 -1.834,1.31 -1.834,2.924z" stroke="null"/>
      <path id="svg_35" d="m394.643,186.197c0.115,0.459 0.229,10.089 -2.981,15.134c0,0 1.834,3.21 6.65,3.325" fill="none" stroke-miterlimit="10" stroke="#000000"/>
      <path id="svg_36" d="m389.972,209.571c0,0 11.018,2.499 21.178,-2.24" fill="none" stroke-miterlimit="10" stroke="#000000"/>
      <path id="svg_37" d="m396.202,213.713c0,0 4.36,0.726 6.65,-0.497" fill="none" stroke-miterlimit="10" stroke="#000000"/>
      <path id="svg_38" d="m411.945,234.282c-7.23,2.45 -18.47,6.12 -24.66,8.13l0.92,-9.71c2.85,1.12 6.08,1.82 9.72,1.99c5.46,0.26 10.01,-0.8 13.79,-2.81l0.23,2.4z" stroke="null"/>
     </g>
    </g>
   </g>
  </g>
  <g id="svg_39" stroke="null">
   <g id="svg_40" stroke="null">
    <title stroke="null">Layer 1</title>
    <g id="svg_41" stroke="null">
     <g id="svg_4" stroke="null"/>
     <g id="svg_3" stroke="null">
      <g id="svg_42" stroke="null">
       <g id="svg_43" stroke="null">
        <path id="svg_44" fill="#fff" d="m95.65269,187.45229c3.7352,3.90744 8.07304,7.57573 9.9522,12.59796c2.88612,7.71884 -0.78555,16.61839 1.85412,24.42197c4.25505,12.57725 21.07694,14.98385 34.61994,15.18346c4.29933,0.06403 8.86437,0.05838 12.52833,-2.14109c5.22158,-3.13537 7.00639,-9.82038 6.75225,-15.80865c-0.25415,-5.98827 -2.06784,-11.85414 -2.07939,-17.84617c-0.03273,-17.38669 14.39401,-30.95822 26.22728,-43.93469c11.83328,-12.97458 22.36886,-31.68322 13.75864,-46.89492c-3.97587,-7.02209 -11.29803,-11.58862 -16.28664,-17.96292c-4.44374,-5.67944 -6.88895,-12.59984 -10.77625,-18.65591c-18.42957,-28.70979 -73.74907,-33.83184 -92.46937,-2.52148c-18.67216,31.22562 -8.18279,88.35333 15.91889,113.56243l0,0.00001z" stroke="null"/>
        <path id="svg_45" fill="#6987FF" d="m233.72618,359.40411c5.07718,-23.39003 0.38315,-48.66316 -12.77863,-68.81237c-13.16178,-20.14921 -34.63726,-34.93533 -58.47132,-40.25887c-15.10062,-3.37264 -30.77691,-3.05816 -46.2549,-2.54407c-12.77478,0.42558 -25.71129,1.00181 -37.92001,4.70588c-12.2068,3.70218 -23.79363,10.92577 -30.0318,21.83647c-3.76986,6.59086 -5.39679,14.11951 -6.84466,21.53705c-2.25652,11.56037 -14.5076,48.74037 -5.88776,58.25757c8.91828,9.84675 48.07822,5.33107 60.68934,5.80184c12.47442,0.46701 135.98063,6.47411 137.49974,-0.5235z" stroke="null"/>
        <path id="svg_46" fill="#C3C62B" d="m107.97115,349.45944c0.43128,1.55168 0.89914,3.15985 1.97735,4.37445c1.20913,1.36148 3.01319,2.04128 4.74217,2.67212c8.83356,3.21634 19.84278,6.07677 26.78756,-0.15818c6.08414,-5.461 5.44877,-14.80308 4.97129,-22.86652c-0.85871,-14.50555 0.35042,-29.12596 3.5831,-43.3095c3.09213,-13.56964 8.05186,-26.97922 7.74573,-40.87841c-0.07701,-3.54212 -0.56413,-7.2443 -2.63775,-10.14993c-12.91533,-18.07968 -58.77938,-9.75824 -62.72637,12.56783c-5.27549,29.85096 7.63214,69.19464 15.55693,97.74813l-0.00001,0.00001z" stroke="null"/>
       </g>
       <g id="svg_47" stroke="null">
        <path id="svg_48" stroke-miterlimit="10" fill="none" d="m181.85693,87.73631c0,0 7.04683,67.64107 -21.17898,99.25838c-3.81222,4.27464 -8.2598,7.8902 -13.47753,10.58304c-7.27787,3.78504 -16.03827,5.78113 -26.55074,5.29152c-7.00832,-0.32013 -13.22724,-1.6383 -18.71452,-3.74738c-3.96625,-1.52531 -7.56667,-3.46491 -10.82054,-5.72463c-39.43142,-27.66279 -28.74566,-105.66093 -28.74566,-105.66093" stroke="#000000"/>
        <path id="svg_49" stroke-miterlimit="10" fill="none" d="m11.15432,358.9032l9.68457,-43.55618c5.10221,-22.95503 19.44616,-42.93476 39.79724,-55.41973l37.64083,-23.08685l1.88685,-19.43363l1.77133,-18.28493" stroke="#000000"/>
        <path id="svg_50" stroke-miterlimit="10" fill="none" d="m238.13526,358.9032l-9.68457,-43.55618c-5.10221,-22.95503 -19.44616,-42.93476 -39.79724,-55.41973l-37.64083,-23.08685l-3.36938,-34.74326l-0.44283,-4.51945" stroke="#000000"/>
        <path id="svg_51" stroke-miterlimit="10" fill="none" d="m61.16368,120.62471c0,0 -12.54759,-19.28486 -20.8844,-11.79953c-8.33682,7.48534 2.0043,48.96069 25.49179,46.64635" stroke="#000000"/>
        <path id="svg_52" stroke-miterlimit="10" fill="none" d="m181.88581,120.62471c0,0 12.54759,-19.28486 20.8844,-11.79953c8.33682,7.48534 -2.0043,48.96069 -25.49179,46.64635" stroke="#000000"/>
        <path id="svg_53" stroke-miterlimit="10" fill="none" d="m48.01923,125.7976c0,0 10.86482,1.17694 14.59232,10.08779" stroke="#000000"/>
        <path id="svg_54" stroke-miterlimit="10" fill="none" d="m52.87499,134.86474c0,0 0.73741,-3.59673 7.65331,-2.44615" stroke="#000000"/>
        <path id="svg_55" stroke-miterlimit="10" fill="none" d="m195.27863,125.7976c0,0 -10.86482,1.17694 -14.59232,10.08779" stroke="#000000"/>
        <path id="svg_56" stroke-miterlimit="10" fill="none" d="m190.42286,134.86474c0,0 -0.73741,-3.59673 -7.65331,-2.44615" stroke="#000000"/>
        <path id="svg_57" d="m149.48581,66.42523c0,0 -52.09452,32.81684 -95.36126,20.15109c-43.26481,-12.66575 -10.23715,-91.03863 59.64964,-73.39584c50.13258,12.65634 51.90006,37.49824 51.90006,37.49824s14.7656,-13.90295 24.7486,-12.46238l4.85576,12.46238c0,0 -16.06522,-1.52531 -20.1855,5.67191c0,0 39.47763,28.92635 7.55127,63.17247c0,0 -7.55127,-23.73464 -7.84585,-35.53793c0,0 -13.83373,0.86434 -25.31274,-17.55994l0.00002,0z" stroke="null"/>
        <path id="svg_58" d="m67.32098,89.08461c0,0 -1.93884,28.18818 -6.13613,29.59297c0,0 -7.35296,-14.54132 -7.05838,-32.10126c0,0 9.92717,2.25031 13.19451,2.50829z" stroke="null"/>
        <path id="svg_59" stroke-miterlimit="10" fill="none" d="m98.27503,236.84044c1.47098,0.28811 31.8994,8.3478 52.73952,0" stroke="#000000"/>
        <path id="svg_60" stroke-miterlimit="10" fill="none" d="m90.95288,241.33164c0,0 38.85381,14.85392 67.38382,0" stroke="#000000"/>
        <line id="svg_61" stroke-miterlimit="10" fill="none" y2="358.89567" x2="101.93514" y1="244.63272" x1="85.57149" stroke="#000000"/>
        <line id="svg_62" stroke-miterlimit="10" fill="none" y2="358.89567" x2="107.62266" y1="241.33164" x1="90.95288" stroke="#000000"/>
        <path id="svg_63" stroke-miterlimit="10" fill="none" d="m59.5483,260.60897l-4.54,36.10663c0,0 14.05322,-19.27168 37.11521,-6.31781" stroke="#000000"/>
        <line id="svg_64" stroke-miterlimit="10" fill="none" y2="358.89567" x2="147.74336" y1="244.63272" x1="164.10701" stroke="#000000"/>
        <line id="svg_65" stroke-miterlimit="10" fill="none" y2="358.89567" x2="142.05584" y1="241.33164" x1="158.72563" stroke="#000000"/>
        <path id="svg_66" stroke-miterlimit="10" fill="none" d="m190.12828,260.60897l4.54,36.10663c0,0 -14.05322,-19.27168 -37.11713,-6.31781" stroke="#000000"/>
        <path id="svg_67" stroke-miterlimit="10" stroke-linejoin="round" stroke-linecap="round" stroke-width="3" fill="none" d="m76.99593,101.59784c0,0 13.46598,-8.41936 22.07428,0" stroke="#000000"/>
        <path id="svg_68" d="m91.56514,117.78876c0,3.04121 -1.58072,5.50619 -3.53111,5.50619c-1.95039,0 -3.53111,-2.46498 -3.53111,-5.50619c0,-3.04121 1.58072,-5.50619 3.53111,-5.50619c1.95039,0.00188 3.53111,2.46687 3.53111,5.50619z" stroke="null"/>
        <path id="svg_69" stroke-miterlimit="10" stroke-linejoin="round" stroke-linecap="round" stroke-width="3" fill="none" d="m160.68179,101.59784c0,0 -13.46598,-8.41936 -22.07428,0" stroke="#000000"/>
        <path id="svg_70" d="m146.11258,117.78876c0,3.04121 1.58072,5.50619 3.53111,5.50619c1.95039,0 3.53111,-2.46498 3.53111,-5.50619c0,-3.04121 -1.58072,-5.50619 -3.53111,-5.50619c-1.95039,0.00188 -3.53111,2.46687 -3.53111,5.50619z" stroke="null"/>
        <path id="svg_71" stroke-miterlimit="10" fill="none" d="m114.33063,111.54815c0.22142,0.86434 0.44091,18.99863 -5.7395,28.49889c0,0 3.53111,6.04476 12.80366,6.26132" stroke="#000000"/>
        <path id="svg_72" stroke-miterlimit="10" fill="none" d="m105.33726,155.56381c0,0 21.21364,4.70588 40.77532,-4.21815" stroke="#000000"/>
        <path id="svg_73" stroke-miterlimit="10" fill="none" d="m117.33226,163.36363c0,0 8.39458,1.36713 12.80366,-0.9359" stroke="#000000"/>
        <path id="svg_74" d="m147.64324,202.09718c-13.92037,4.6136 -35.56144,11.52459 -47.47943,15.30963l1.77133,-18.28493c5.48728,2.10908 11.7062,3.42725 18.71452,3.74738c10.51248,0.48961 19.27287,-1.50648 26.55074,-5.29152l0.44283,4.51945l0.00001,-0.00001z" stroke="null"/>
       </g>
      </g>
     </g>
    </g>
   </g>
  </g>
 </g>

</svg>